<svg viewBox="0 0 369 25" fill="none" xmlns="http://www.w3.org/2000/svg">
    <path d="M24.024 4.224V13.568L15.864 16.96H6.488V21.44C6.488 23.136 5.304 24.32 3.576 24.32C1.816 24.32 0.664 23.2 0.664 21.44V0.768H15.864L24.024 4.224ZM14.68 11.136L18.232 9.664V8.096L14.68 6.592H6.488V11.136H14.68ZM49.5508 4.224V20.544L41.3588 24H34.3508L26.1588 20.544V4.224L34.3508 0.768H41.3588L49.5508 4.224ZM40.1748 18.144L43.6948 16.64V8.096L40.1748 6.592H35.5348L32.0148 8.096V16.64L35.5348 18.144H40.1748ZM76.12 4.224V20.544L67.992 24H52.792V0.768H67.992L76.12 4.224ZM66.808 18.144L70.328 16.64V8.096L66.808 6.592H58.616V18.144H66.808ZM85.0818 3.328V21.44C85.0818 23.136 83.8978 24.32 82.1698 24.32C80.4098 24.32 79.2578 23.2 79.2578 21.44V3.328C79.2578 1.6 80.4738 0.415998 82.1698 0.415998C83.8978 0.415998 85.0818 1.6 85.0818 3.328ZM110.209 4.288L103.713 24H93.697L87.169 4.288C87.009 3.968 86.945 3.584 86.945 3.232C86.945 1.664 88.385 0.415998 89.985 0.415998C91.361 0.415998 92.225 1.088 92.705 2.432L97.889 18.144H99.489L104.673 2.432C105.121 1.088 106.049 0.415998 107.393 0.415998C109.025 0.415998 110.433 1.6 110.433 3.232C110.433 3.52 110.369 3.904 110.209 4.288ZM132.862 24H112.414V0.768H132.83C134.558 0.768 135.742 1.952 135.742 3.648C135.742 5.376 134.558 6.592 132.83 6.592H118.27V8.192H132.766C134.494 8.192 135.678 9.376 135.678 11.104C135.678 12.8 134.494 14.016 132.766 14.016H118.27V18.144H132.862C134.59 18.144 135.774 19.392 135.774 21.088C135.774 22.784 134.558 24 132.862 24ZM161.524 4.224V13.056L157.46 14.752L161.14 19.552C161.556 20.128 161.78 20.736 161.78 21.376C161.78 22.976 160.372 24.32 158.772 24.32C158.004 24.32 157.204 23.968 156.564 23.136L148.116 12.352L155.732 9.184V8.096L152.18 6.592H143.988V21.44C143.988 23.136 142.804 24.32 141.076 24.32C139.316 24.32 138.164 23.2 138.164 21.44V0.768H153.364L161.524 4.224ZM169.853 9.376H187.421V20.544L179.229 24H166.973C165.245 24 164.029 22.816 164.029 21.088C164.029 19.392 165.245 18.144 166.973 18.144H178.045L181.597 16.64V14.4H164.029V4.224L172.189 0.768H184.477C186.205 0.768 187.421 1.952 187.421 3.648C187.421 5.376 186.205 6.592 184.477 6.592H173.373L169.853 8.096V9.376ZM210.737 24H190.289V0.768H210.705C212.433 0.768 213.617 1.952 213.617 3.648C213.617 5.376 212.433 6.592 210.705 6.592H196.145V8.192H210.641C212.369 8.192 213.553 9.376 213.553 11.104C213.553 12.8 212.369 14.016 210.641 14.016H196.145V18.144H210.737C212.465 18.144 213.649 19.392 213.649 21.088C213.649 22.784 212.433 24 210.737 24ZM239.795 22.3L235.795 24H231.395L226.275 21.84V11.64L231.395 9.48H239.075C240.155 9.48 240.915 10.22 240.915 11.28C240.915 12.36 240.155 13.12 239.075 13.12H232.135L229.935 14.06V19.4L232.135 20.34H235.055L238.375 18.94C238.655 18.84 238.915 18.78 239.135 18.78C240.175 18.78 240.935 19.64 240.935 20.68C240.935 21.44 240.555 21.98 239.795 22.3ZM256.735 11.64V21.84L251.615 24H247.235L242.115 21.84V11.64L247.235 9.48H251.615L256.735 11.64ZM250.875 20.34L253.075 19.4V14.06L250.875 13.12H247.975L245.775 14.06V19.4L247.975 20.34H250.875ZM273.301 11.08V24H266.501L262.841 13.12H262.341V22.4C262.341 23.5 261.621 24.2 260.501 24.2C259.441 24.2 258.681 23.46 258.681 22.4V9.48H265.481L269.141 20.34H269.661V11.08C269.661 10 270.421 9.26 271.481 9.26C272.561 9.26 273.301 10 273.301 11.08ZM289.08 11.68L285.02 24H278.76L274.68 11.68C274.58 11.48 274.54 11.24 274.54 11.02C274.54 10.04 275.44 9.26 276.44 9.26C277.3 9.26 277.84 9.68 278.14 10.52L281.38 20.34H282.38L285.62 10.52C285.9 9.68 286.48 9.26 287.32 9.26C288.34 9.26 289.22 10 289.22 11.02C289.22 11.2 289.18 11.44 289.08 11.68ZM303.238 24H290.458V9.48H303.218C304.298 9.48 305.038 10.22 305.038 11.28C305.038 12.36 304.298 13.12 303.218 13.12H294.118V14.12H303.178C304.258 14.12 304.998 14.86 304.998 15.94C304.998 17 304.258 17.76 303.178 17.76H294.118V20.34H303.238C304.318 20.34 305.058 21.12 305.058 22.18C305.058 23.24 304.298 24 303.238 24ZM321.152 11.64V17.16L318.612 18.22L320.912 21.22C321.172 21.58 321.312 21.96 321.312 22.36C321.312 23.36 320.432 24.2 319.432 24.2C318.952 24.2 318.452 23.98 318.052 23.46L312.772 16.72L317.532 14.74V14.06L315.312 13.12H310.192V22.4C310.192 23.46 309.452 24.2 308.372 24.2C307.272 24.2 306.552 23.5 306.552 22.4V9.48H316.052L321.152 11.64ZM334.549 13.12H330.889V22.4C330.889 23.46 330.129 24.2 329.069 24.2C327.949 24.2 327.229 23.5 327.229 22.4V13.12H323.569C322.469 13.12 321.769 12.4 321.769 11.28C321.769 10.22 322.529 9.48 323.569 9.48H334.549C335.629 9.48 336.369 10.22 336.369 11.28C336.369 12.36 335.629 13.12 334.549 13.12ZM350.484 24H337.704V9.48H350.464C351.544 9.48 352.284 10.22 352.284 11.28C352.284 12.36 351.544 13.12 350.464 13.12H341.364V14.12H350.424C351.504 14.12 352.244 14.86 352.244 15.94C352.244 17 351.504 17.76 350.424 17.76H341.364V20.34H350.484C351.564 20.34 352.304 21.12 352.304 22.18C352.304 23.24 351.544 24 350.484 24ZM368.398 11.64V17.16L365.858 18.22L368.158 21.22C368.418 21.58 368.558 21.96 368.558 22.36C368.558 23.36 367.678 24.2 366.678 24.2C366.198 24.2 365.698 23.98 365.298 23.46L360.018 16.72L364.778 14.74V14.06L362.558 13.12H357.438V22.4C357.438 23.46 356.698 24.2 355.618 24.2C354.518 24.2 353.798 23.5 353.798 22.4V9.48H363.298L368.398 11.64Z" fill="black" />
</svg>
